<svg width="30" height="27" viewBox="0 0 30 27" fill="none" xmlns="http://www.w3.org/2000/svg">
<path d="M25.6944 0.8125H3.47222C1.55556 0.8125 0 2.1565 0 3.8125V23.0125C0 24.6685 1.55556 26.0125 3.47222 26.0125H25.6944C27.6111 26.0125 29.1667 24.6685 29.1667 23.0125V3.8125C29.1667 2.1565 27.6111 0.8125 25.6944 0.8125ZM9.02778 10.4125V21.8125H4.86111V10.4125H9.02778ZM4.86111 7.0945C4.86111 6.2545 5.69444 5.6125 6.94444 5.6125C8.19444 5.6125 8.97917 6.2545 9.02778 7.0945C9.02778 7.9345 8.25 8.6125 6.94444 8.6125C5.69444 8.6125 4.86111 7.9345 4.86111 7.0945ZM24.3056 21.8125H20.1389C20.1389 21.8125 20.1389 16.2565 20.1389 15.8125C20.1389 14.6125 19.4444 13.4125 17.7083 13.3885H17.6528C15.9722 13.3885 15.2778 14.6245 15.2778 15.8125C15.2778 16.3585 15.2778 21.8125 15.2778 21.8125H11.1111V10.4125H15.2778V11.9485C15.2778 11.9485 16.6181 10.4125 19.3125 10.4125C22.0694 10.4125 24.3056 12.0505 24.3056 15.3685V21.8125Z" fill="white"/>
</svg>
