<svg width="44" height="38" viewBox="0 0 44 38" fill="none" xmlns="http://www.w3.org/2000/svg">
<path d="M22 0C9.84677 0 0 8.32387 0 18.5975C0 28.8711 9.84677 37.1949 22 37.1949C34.1532 37.1949 44 28.8711 44 18.5975C44 8.32387 34.1532 0 22 0ZM22 7.19902C26.3113 7.19902 29.8064 10.1536 29.8064 13.7981C29.8064 17.4426 26.3113 20.3972 22 20.3972C17.6887 20.3972 14.1935 17.4426 14.1935 13.7981C14.1935 10.1536 17.6887 7.19902 22 7.19902ZM22 32.9955C16.7927 32.9955 12.1266 31.0008 9.00403 27.8812C10.6718 25.2266 13.9363 23.3968 17.7419 23.3968C17.9548 23.3968 18.1677 23.4268 18.3718 23.4793C19.525 23.7943 20.7315 23.9967 22 23.9967C23.2685 23.9967 24.4839 23.7943 25.6282 23.4793C25.8323 23.4268 26.0452 23.3968 26.2581 23.3968C30.0637 23.3968 33.3282 25.2266 34.996 27.8812C31.8734 31.0008 27.2073 32.9955 22 32.9955Z" fill="#FFFEFA"/>
</svg>
