<svg width="31" height="25" viewBox="0 0 31 25" fill="none" xmlns="http://www.w3.org/2000/svg">
<path d="M15.3396 20C15.8792 20 16.3355 19.8488 16.7086 19.5463C17.0817 19.2438 17.2677 18.8742 17.2667 18.4375C17.2656 18.0008 17.0796 17.6308 16.7086 17.3275C16.3376 17.0242 15.8812 16.8733 15.3396 16.875C14.7979 16.8767 14.3421 17.0279 13.9721 17.3288C13.6021 17.6296 13.4156 17.9992 13.4125 18.4375C13.4094 18.8758 13.596 19.2458 13.9721 19.5475C14.3483 19.8492 14.8041 20 15.3396 20ZM13.9521 15.1875H16.8042C16.8042 14.5 16.9008 13.9583 17.094 13.5625C17.2872 13.1667 17.833 12.625 18.7313 11.9375C19.3993 11.3958 19.926 10.88 20.3115 10.39C20.6969 9.90001 20.8896 9.31167 20.8896 8.62501C20.8896 7.45834 20.3628 6.56251 19.3094 5.93751C18.2559 5.31251 17.0097 5.00001 15.5708 5.00001C14.1063 5.00001 12.9181 5.31251 12.0065 5.93751C11.0949 6.56251 10.4587 7.31251 10.0979 8.18751L12.6417 9.00001C12.7701 8.62501 13.0595 8.21876 13.5096 7.78126C13.9598 7.34376 14.6469 7.12501 15.5708 7.12501C16.3931 7.12501 17.0097 7.30751 17.4208 7.67251C17.8319 8.03751 18.0375 8.43834 18.0375 8.87501C18.0375 9.29167 17.8833 9.68251 17.575 10.0475C17.2667 10.4125 16.8813 10.7508 16.4188 11.0625C15.2882 11.875 14.5944 12.4896 14.3375 12.9063C14.0806 13.3229 13.9521 14.0833 13.9521 15.1875ZM15.4167 25C13.284 25 11.2799 24.6721 9.40417 24.0163C7.52847 23.3604 5.89688 22.4696 4.50938 21.3438C3.12188 20.2179 2.0237 18.895 1.21484 17.375C0.405974 15.855 0.00102973 14.23 1.95148e-06 12.5C-0.00102583 10.77 0.403919 9.14501 1.21484 7.62501C2.02575 6.10501 3.12393 4.78209 4.50938 3.65626C5.89482 2.53042 7.52642 1.64001 9.40417 0.985006C11.2819 0.330006 13.2861 0.00167298 15.4167 6.31313e-06C17.5473 -0.00166035 19.5514 0.326673 21.4292 0.985006C23.3069 1.64334 24.9385 2.53376 26.324 3.65626C27.7094 4.77876 28.8081 6.10167 29.62 7.62501C30.432 9.14834 30.8364 10.7733 30.8333 12.5C30.8303 14.2267 30.4253 15.8517 29.6185 17.375C28.8117 18.8983 27.7135 20.2213 26.324 21.3438C24.9344 22.4663 23.3028 23.3571 21.4292 24.0163C19.5555 24.6754 17.5514 25.0033 15.4167 25Z" fill="#FFFEFA"/>
</svg>
