<svg width="26" height="26" viewBox="0 0 26 26" fill="none" xmlns="http://www.w3.org/2000/svg">
<path d="M22.5999 0.399902H3.3999C1.7457 0.399902 0.399902 1.7457 0.399902 3.3999V22.5999C0.399902 24.2541 1.7457 25.5999 3.3999 25.5999H22.5999C24.2541 25.5999 25.5999 24.2541 25.5999 22.5999V3.3999C25.5999 1.7457 24.2541 0.399902 22.5999 0.399902ZM20.2035 11.3937C20.0673 11.4063 19.9293 11.4147 19.7895 11.4147C18.2157 11.4147 16.8327 10.6053 16.0281 9.3819C16.0281 12.5913 16.0281 16.2429 16.0281 16.3041C16.0281 19.1295 13.7373 21.4203 10.9119 21.4203C8.0865 21.4203 5.7957 19.1295 5.7957 16.3041C5.7957 13.4787 8.0865 11.1879 10.9119 11.1879C11.0187 11.1879 11.1231 11.1975 11.2281 11.2041V13.7253C11.1231 13.7127 11.0199 13.6935 10.9119 13.6935C9.4695 13.6935 8.3007 14.8623 8.3007 16.3047C8.3007 17.7471 9.4695 18.9159 10.9119 18.9159C12.3543 18.9159 13.6281 17.7795 13.6281 16.3371C13.6281 16.2801 13.6533 4.5807 13.6533 4.5807H16.0629C16.2897 6.7353 18.0291 8.4357 20.2035 8.5917V11.3937Z" fill="white"/>
</svg>
