<svg width="26" height="22" viewBox="0 0 26 22" fill="none" xmlns="http://www.w3.org/2000/svg">
<path d="M13 0C8.814 0 3.38086 1.04883 3.38086 1.04883L3.36719 1.06446C1.46067 1.36937 0 3.00763 0 5.00001V11V11.002V17V17.002C0.00384 18.9676 1.4353 20.6391 3.37695 20.9453L3.38086 20.9512C3.38086 20.9512 8.814 22.002 13 22.002C17.186 22.002 22.6191 20.9512 22.6191 20.9512L22.6211 20.9492C24.565 20.6437 25.9979 18.9697 26 17.002V17V11.002V11V5.00001C25.9971 3.03363 24.5654 1.36098 22.623 1.0547L22.6191 1.04884C22.6191 1.04884 17.186 0 13 0ZM10 6.39844L18 11L10 15.6016V6.39844Z" fill="white"/>
</svg>
