<svg width="263" height="68" viewBox="0 0 263 68" fill="none" xmlns="http://www.w3.org/2000/svg">
<path d="M124.443 31.6515H109.569L106.963 37.1032C106.32 38.445 105.999 39.447 105.999 40.1094C105.999 40.6359 106.273 41.1029 106.821 41.5105C107.387 41.9011 108.597 42.1559 110.447 42.2748V43.2174H98.3499V42.2748C99.9553 42.02 100.994 41.6888 101.466 41.2813C102.429 40.466 103.497 38.8101 104.668 36.3135L118.182 7.88281H119.173L132.546 36.6192C133.622 38.929 134.595 40.4321 135.464 41.1284C136.351 41.8078 137.579 42.1899 139.147 42.2748V43.2174H123.99V42.2748C125.519 42.2069 126.549 41.9776 127.078 41.587C127.625 41.1963 127.899 40.7208 127.899 40.1603C127.899 39.413 127.522 38.2327 126.766 36.6192L124.443 31.6515ZM123.65 29.7663L117.133 15.8057L110.447 29.7663H123.65ZM173.087 33.6641L174.022 33.8424L170.736 43.2174H140.988V42.2748H142.433C144.057 42.2748 145.219 41.7992 145.918 40.8482C146.314 40.3047 146.513 39.0479 146.513 37.0778V14.7867C146.513 12.6298 146.248 11.2795 145.72 10.736C144.983 9.98876 143.887 9.61514 142.433 9.61514H140.988V8.67257H158.383V9.61514C156.343 9.59819 154.908 9.76801 154.077 10.1247C153.265 10.4813 152.708 10.9314 152.405 11.4749C152.103 12.0183 151.952 13.3176 151.952 15.3726V37.0778C151.952 38.4874 152.103 39.4555 152.405 39.982C152.632 40.3386 152.982 40.6019 153.454 40.7717C153.926 40.9416 155.399 41.0265 157.873 41.0265H160.678C163.625 41.0265 165.693 40.8312 166.883 40.4405C168.073 40.0499 169.159 39.3621 170.141 38.3771C171.123 37.375 172.105 35.804 173.087 33.6641ZM187.423 10.5577V24.2126H195.866C198.057 24.2126 199.52 23.9154 200.257 23.321C201.239 22.5397 201.787 21.164 201.9 19.194H202.948V31.2184H201.9C201.635 29.537 201.371 28.4585 201.107 27.983C200.767 27.3886 200.21 26.9215 199.435 26.5818C198.661 26.2422 197.471 26.0724 195.866 26.0724H187.423V37.4599C187.423 38.9884 187.498 39.9226 187.65 40.2622C187.801 40.5849 188.065 40.8482 188.443 41.052C188.821 41.2388 189.538 41.3322 190.596 41.3322H197.112C199.284 41.3322 200.861 41.1963 201.843 40.9246C202.825 40.6528 203.77 40.1178 204.676 39.3196C205.847 38.2667 207.046 36.6786 208.274 34.5557H209.408L206.093 43.2174H176.487V42.2748H177.847C178.753 42.2748 179.613 42.0795 180.425 41.6888C181.029 41.4171 181.436 41.0095 181.643 40.466C181.87 39.9226 181.983 38.8101 181.983 37.1287V14.6848C181.983 12.4939 181.738 11.1437 181.246 10.6342C180.566 9.95479 179.433 9.61514 177.847 9.61514H176.487V8.67257H206.093L206.518 16.2388H205.413C205.016 14.4215 204.572 13.1732 204.082 12.4939C203.609 11.8145 202.901 11.2966 201.957 10.9399C201.201 10.6851 199.87 10.5577 197.962 10.5577H187.423ZM222.667 27.0404V37.1032C222.667 39.2772 222.931 40.6274 223.46 41.1539C224.177 41.9011 225.264 42.2748 226.718 42.2748H228.191V43.2174H211.731V42.2748H213.176C214.8 42.2748 215.962 41.7992 216.661 40.8482C217.038 40.3217 217.227 39.0734 217.227 37.1032V14.7867C217.227 12.6127 216.972 11.2626 216.462 10.736C215.725 9.98876 214.63 9.61514 213.176 9.61514H211.731V8.67257H225.811C229.249 8.67257 231.959 8.99526 233.943 9.6406C235.926 10.269 237.597 11.339 238.957 12.8506C240.317 14.3621 240.997 16.1539 240.997 18.2259C240.997 21.0452 239.958 23.338 237.881 25.1043C235.822 26.8706 232.903 27.7537 229.126 27.7537C228.201 27.7537 227.2 27.6943 226.123 27.5754C225.047 27.4565 223.894 27.2782 222.667 27.0404ZM222.667 25.5883C223.667 25.7582 224.555 25.8855 225.33 25.9705C226.104 26.0554 226.765 26.0978 227.313 26.0978C229.277 26.0978 230.968 25.4185 232.384 24.0598C233.82 22.6841 234.537 20.9093 234.537 18.7354C234.537 17.2408 234.197 15.8567 233.517 14.5829C232.837 13.2921 231.874 12.3325 230.628 11.7041C229.381 11.0587 227.965 10.736 226.378 10.736C225.415 10.736 224.177 10.8974 222.667 11.2201V25.5883ZM260.97 42.2748V43.2174H244.51V42.2748H245.87C247.456 42.2748 248.608 41.8587 249.326 41.0265C249.78 40.483 250.006 39.1753 250.006 37.1032V14.7867C250.006 13.0373 249.884 11.8825 249.638 11.322C249.449 10.8974 249.062 10.5323 248.476 10.2266C247.645 9.81893 246.776 9.61514 245.87 9.61514H244.51V8.67257H260.97V9.61514H259.582C258.014 9.61514 256.872 10.0312 256.154 10.8635C255.682 11.4069 255.446 12.7147 255.446 14.7867V37.1032C255.446 38.8526 255.569 40.0075 255.814 40.5679C256.003 40.9925 256.399 41.3576 257.004 41.6634C257.816 42.071 258.676 42.2748 259.582 42.2748H260.97Z" fill="white"/>
<path d="M100.972 58.0348H101.881L104.544 64.6087H103.766L103.197 63.2H99.6617L99.0925 64.6087H98.3145L100.972 58.0348ZM99.928 62.5426H102.925L101.427 58.8424L99.928 62.5426ZM107.584 64.7308C107.194 64.7308 106.816 64.676 106.451 64.5664C106.089 64.4569 105.772 64.3003 105.5 64.0968C105.229 63.8934 105.037 63.6508 104.926 63.369L105.61 63.1389C105.687 63.333 105.826 63.5005 106.028 63.6414C106.233 63.7791 106.472 63.8855 106.743 63.9607C107.018 64.0358 107.299 64.0734 107.584 64.0734C107.918 64.0734 108.23 64.0233 108.519 63.9231C108.808 63.8229 109.041 63.6836 109.219 63.5052C109.396 63.3236 109.485 63.1108 109.485 62.8666C109.485 62.6193 109.393 62.4158 109.208 62.2562C109.024 62.0965 108.785 61.9713 108.493 61.8805C108.204 61.7866 107.901 61.7146 107.584 61.6645C107.086 61.5862 106.639 61.4798 106.242 61.3452C105.849 61.2106 105.537 61.0212 105.307 60.777C105.077 60.5297 104.963 60.2042 104.963 59.8003C104.963 59.4215 105.084 59.0928 105.328 58.8142C105.572 58.5356 105.892 58.3196 106.289 58.1662C106.689 58.0128 107.121 57.9362 107.584 57.9362C107.964 57.9362 108.334 57.9894 108.696 58.0958C109.058 58.2022 109.377 58.3572 109.652 58.5607C109.93 58.7642 110.131 59.013 110.252 59.3073L109.558 59.5327C109.481 59.3355 109.34 59.168 109.135 59.0302C108.933 58.8894 108.696 58.7829 108.425 58.7109C108.153 58.6358 107.873 58.5982 107.584 58.5982C107.253 58.5951 106.943 58.6452 106.655 58.7485C106.369 58.8487 106.138 58.9895 105.96 59.1711C105.782 59.3495 105.694 59.5593 105.694 59.8003C105.694 60.0821 105.775 60.2996 105.939 60.453C106.106 60.6033 106.333 60.716 106.618 60.7911C106.903 60.8662 107.225 60.9335 107.584 60.993C108.051 61.065 108.484 61.1777 108.884 61.3311C109.285 61.4814 109.607 61.6833 109.85 61.9368C110.094 62.1873 110.216 62.4972 110.216 62.8666C110.216 63.2422 110.094 63.5709 109.85 63.8527C109.607 64.1313 109.285 64.3473 108.884 64.5007C108.487 64.6541 108.054 64.7308 107.584 64.7308ZM111.476 64.6087V58.0348H115.925V58.6922H112.207V60.7582H115.283V61.4156H112.207V63.9513H115.925V64.6087H111.476ZM119.629 64.7308C119.239 64.7308 118.862 64.676 118.496 64.5664C118.134 64.4569 117.817 64.3003 117.546 64.0968C117.274 63.8934 117.083 63.6508 116.971 63.369L117.655 63.1389C117.732 63.333 117.871 63.5005 118.073 63.6414C118.279 63.7791 118.517 63.8855 118.789 63.9607C119.064 64.0358 119.344 64.0734 119.629 64.0734C119.964 64.0734 120.275 64.0233 120.564 63.9231C120.853 63.8229 121.086 63.6836 121.264 63.5052C121.441 63.3236 121.53 63.1108 121.53 62.8666C121.53 62.6193 121.438 62.4158 121.253 62.2562C121.069 62.0965 120.83 61.9713 120.538 61.8805C120.249 61.7866 119.946 61.7146 119.629 61.6645C119.132 61.5862 118.684 61.4798 118.287 61.3452C117.894 61.2106 117.582 61.0212 117.353 60.777C117.123 60.5297 117.008 60.2042 117.008 59.8003C117.008 59.4215 117.13 59.0928 117.374 58.8142C117.617 58.5356 117.937 58.3196 118.334 58.1662C118.735 58.0128 119.166 57.9362 119.629 57.9362C120.009 57.9362 120.38 57.9894 120.742 58.0958C121.104 58.2022 121.422 58.3572 121.697 58.5607C121.976 58.7642 122.176 59.013 122.298 59.3073L121.603 59.5327C121.527 59.3355 121.386 59.168 121.18 59.0302C120.978 58.8894 120.742 58.7829 120.47 58.7109C120.199 58.6358 119.918 58.5982 119.629 58.5982C119.299 58.5951 118.989 58.6452 118.7 58.7485C118.414 58.8487 118.183 58.9895 118.005 59.1711C117.828 59.3495 117.739 59.5593 117.739 59.8003C117.739 60.0821 117.821 60.2996 117.984 60.453C118.152 60.6033 118.378 60.716 118.663 60.7911C118.949 60.8662 119.271 60.9335 119.629 60.993C120.096 61.065 120.529 61.1777 120.93 61.3311C121.33 61.4814 121.652 61.6833 121.896 61.9368C122.139 62.1873 122.261 62.4972 122.261 62.8666C122.261 63.2422 122.139 63.5709 121.896 63.8527C121.652 64.1313 121.33 64.3473 120.93 64.5007C120.533 64.6541 120.099 64.7308 119.629 64.7308ZM126.793 64.7308C126.299 64.7308 125.834 64.6431 125.399 64.4678C124.964 64.2894 124.581 64.0436 124.25 63.7306C123.92 63.4175 123.66 63.056 123.472 62.6459C123.284 62.2327 123.19 61.7913 123.19 61.3217C123.19 60.8522 123.284 60.4123 123.472 60.0022C123.66 59.589 123.92 59.2259 124.25 58.9128C124.581 58.5998 124.964 58.3556 125.399 58.1803C125.834 58.0019 126.299 57.9127 126.793 57.9127C127.291 57.9127 127.758 58.0019 128.193 58.1803C128.628 58.3556 129.011 58.5998 129.342 58.9128C129.672 59.2259 129.93 59.589 130.115 60.0022C130.303 60.4123 130.397 60.8522 130.397 61.3217C130.397 61.7913 130.303 62.2327 130.115 62.6459C129.93 63.056 129.672 63.4175 129.342 63.7306C129.011 64.0436 128.628 64.2894 128.193 64.4678C127.758 64.6431 127.291 64.7308 126.793 64.7308ZM126.793 64.0734C127.194 64.0734 127.566 64.0014 127.911 63.8574C128.259 63.7102 128.564 63.5099 128.825 63.2563C129.089 63.0028 129.295 62.7101 129.441 62.3782C129.591 62.0464 129.665 61.6942 129.665 61.3217C129.665 60.9461 129.591 60.5923 129.441 60.2605C129.291 59.9255 129.084 59.6329 128.82 59.3824C128.558 59.1289 128.254 58.9301 127.906 58.7861C127.561 58.6421 127.19 58.5701 126.793 58.5701C126.393 58.5701 126.019 58.6436 125.671 58.7908C125.326 58.9348 125.021 59.1335 124.757 59.3871C124.496 59.6407 124.29 59.9334 124.141 60.2652C123.994 60.597 123.921 60.9492 123.921 61.3217C123.921 61.7005 123.996 62.0558 124.146 62.3876C124.296 62.7195 124.501 63.0122 124.762 63.2657C125.027 63.5193 125.331 63.7181 125.676 63.8621C126.024 64.0029 126.397 64.0734 126.793 64.0734ZM131.457 64.6087V58.0348H133.937C134.327 58.0348 134.679 58.1208 134.992 58.293C135.305 58.4621 135.554 58.6922 135.739 58.9833C135.923 59.2713 136.015 59.5953 136.015 59.9553C136.015 60.2777 135.942 60.5704 135.796 60.8334C135.65 61.0963 135.45 61.3139 135.196 61.4861C134.945 61.6582 134.661 61.7725 134.344 61.8288L136.13 64.6087H135.284L133.525 61.8805H132.188V64.6087H131.457ZM132.188 61.2231H133.874C134.132 61.2231 134.367 61.1668 134.579 61.0541C134.795 60.9382 134.966 60.7833 135.091 60.5892C135.22 60.392 135.284 60.1697 135.284 59.9224C135.284 59.6751 135.22 59.4544 135.091 59.2603C134.966 59.0631 134.795 58.9082 134.579 58.7955C134.367 58.6796 134.132 58.6217 133.874 58.6217H132.188V61.2231ZM137.58 64.6087V58.0348H138.311V64.6087H137.58ZM137.768 57.5182L138.185 56.1659H138.916L138.259 57.5182H137.768ZM142.167 58.0348H143.076L145.739 64.6087H144.961L144.391 63.2H140.856L140.287 64.6087H139.509L142.167 58.0348ZM141.122 62.5426H144.12L142.621 58.8424L141.122 62.5426ZM149.295 64.6087V58.0348H150.026V63.9513H153.384V64.6087H149.295ZM154.537 64.6087V58.0348H158.986V58.6922H155.268V60.7582H158.344V61.4156H155.268V63.9513H158.986V64.6087H154.537ZM163.424 64.7308C162.923 64.7308 162.453 64.6431 162.014 64.4678C161.579 64.2894 161.198 64.0436 160.87 63.7306C160.543 63.4144 160.287 63.0513 160.103 62.6412C159.918 62.228 159.826 61.7866 159.826 61.317C159.826 60.8381 159.922 60.392 160.113 59.9788C160.305 59.5655 160.567 59.2055 160.902 58.8988C161.236 58.5888 161.619 58.3478 162.05 58.1756C162.486 58.0035 162.947 57.9174 163.434 57.9174C163.995 57.9174 164.524 58.0348 165.022 58.2695C165.523 58.5043 165.948 58.8377 166.296 59.2697L165.643 59.589C165.365 59.2603 165.029 59.0083 164.635 58.833C164.245 58.6577 163.843 58.5701 163.429 58.5701C163.036 58.5701 162.665 58.6421 162.317 58.7861C161.972 58.9269 161.667 59.1242 161.403 59.3777C161.138 59.6313 160.931 59.924 160.782 60.2558C160.632 60.5876 160.557 60.9445 160.557 61.3264C160.557 61.7052 160.632 62.0605 160.782 62.3923C160.931 62.7242 161.137 63.0168 161.398 63.2704C161.662 63.5208 161.969 63.7181 162.317 63.8621C162.665 64.0029 163.037 64.0734 163.434 64.0734C163.762 64.0734 164.071 64.0233 164.364 63.9231C164.66 63.8198 164.929 63.6758 165.173 63.4911C165.417 63.3064 165.622 63.0904 165.789 62.8431C165.96 62.5958 166.084 62.3266 166.16 62.0355H164.186V61.4391H167.011C167.001 61.893 166.9 62.3188 166.708 62.7163C166.517 63.1139 166.256 63.4645 165.925 63.7682C165.598 64.0687 165.22 64.305 164.792 64.4772C164.367 64.6462 163.911 64.7308 163.424 64.7308ZM170.082 58.0348H170.99L173.654 64.6087H172.876L172.306 63.2H168.771L168.202 64.6087H167.424L170.082 58.0348ZM169.037 62.5426H172.035L170.536 58.8424L169.037 62.5426ZM174.63 64.6087V58.0348H175.361V63.9513H178.718V64.6087H174.63ZM184.287 64.7308C183.873 64.7308 183.505 64.6415 183.185 64.4631C182.868 64.2815 182.619 64.0452 182.438 63.7541C182.261 63.4629 182.172 63.1515 182.172 62.8196C182.172 62.6162 182.195 62.4393 182.24 62.289C182.289 62.1388 182.37 61.9901 182.485 61.8429C182.604 61.6958 182.767 61.5252 182.976 61.3311C183.185 61.137 183.451 60.8944 183.775 60.6033C183.584 60.428 183.425 60.2808 183.3 60.1619C183.178 60.0429 183.082 59.9365 183.013 59.8426C182.943 59.7455 182.894 59.6485 182.866 59.5515C182.839 59.4513 182.825 59.3355 182.825 59.204C182.825 58.9567 182.891 58.7328 183.023 58.5325C183.159 58.3322 183.338 58.1741 183.561 58.0582C183.784 57.9393 184.026 57.8798 184.287 57.8798C184.558 57.8798 184.806 57.9393 185.028 58.0582C185.251 58.1772 185.429 58.3368 185.561 58.5372C185.693 58.7344 185.759 58.9567 185.759 59.204C185.759 59.3386 185.744 59.4575 185.712 59.5608C185.685 59.661 185.634 59.7596 185.561 59.8567C185.491 59.9537 185.394 60.0617 185.269 60.1807C185.147 60.2965 184.993 60.4374 184.809 60.6033L186.762 62.3595L187.911 61.3264V62.2562L187.269 62.8337L188.736 64.1438L188.219 64.6087L186.762 63.3033C186.435 63.5975 186.161 63.8386 185.942 64.0264C185.726 64.2111 185.537 64.3551 185.373 64.4584C185.209 64.5617 185.044 64.6322 184.877 64.6697C184.713 64.7104 184.517 64.7308 184.287 64.7308ZM184.287 64.0734C184.461 64.0734 184.609 64.0562 184.731 64.0217C184.853 63.9873 184.976 63.9262 185.101 63.8386C185.23 63.7478 185.382 63.621 185.556 63.4582C185.733 63.2955 185.963 63.0857 186.245 62.829L184.287 61.0682C183.998 61.3311 183.763 61.544 183.582 61.7068C183.401 61.8695 183.262 62.0073 183.164 62.12C183.067 62.2295 182.999 62.3391 182.96 62.4487C182.926 62.5551 182.908 62.6835 182.908 62.8337C182.908 63.0654 182.971 63.2751 183.096 63.4629C183.221 63.6508 183.389 63.7995 183.597 63.909C183.806 64.0186 184.036 64.0734 184.287 64.0734ZM184.287 60.2135C184.513 60.0132 184.684 59.8614 184.799 59.7581C184.913 59.6548 184.992 59.5655 185.034 59.4904C185.075 59.4122 185.096 59.3135 185.096 59.1946C185.096 58.988 185.014 58.8158 184.851 58.6781C184.691 58.5403 184.503 58.4715 184.287 58.4715C184.064 58.4715 183.874 58.5435 183.718 58.6875C183.564 58.8315 183.488 59.0005 183.488 59.1946C183.488 59.3135 183.51 59.4137 183.556 59.4951C183.601 59.5734 183.681 59.6642 183.796 59.7675C183.911 59.8708 184.074 60.0195 184.287 60.2135ZM192.285 64.6087V58.0348H194.624C195.014 58.0348 195.365 58.1208 195.679 58.293C195.992 58.4621 196.241 58.6922 196.426 58.9833C196.614 59.2713 196.708 59.5953 196.708 59.9553C196.708 60.3184 196.612 60.6455 196.42 60.9367C196.232 61.2278 195.98 61.4579 195.663 61.6269C195.35 61.796 195.003 61.8805 194.624 61.8805H193.016V64.6087H192.285ZM193.016 61.2231H194.567C194.824 61.2231 195.059 61.1668 195.272 61.0541C195.487 60.9382 195.658 60.7833 195.783 60.5892C195.912 60.392 195.976 60.1697 195.976 59.9224C195.976 59.6751 195.912 59.4544 195.783 59.2603C195.658 59.0631 195.487 58.9082 195.272 58.7955C195.059 58.6796 194.824 58.6217 194.567 58.6217H193.016V61.2231ZM200.305 64.7308C199.915 64.7308 199.537 64.676 199.172 64.5664C198.81 64.4569 198.493 64.3003 198.221 64.0968C197.95 63.8934 197.758 63.6508 197.647 63.369L198.331 63.1389C198.408 63.333 198.547 63.5005 198.749 63.6414C198.954 63.7791 199.193 63.8855 199.464 63.9607C199.739 64.0358 200.019 64.0734 200.305 64.0734C200.639 64.0734 200.951 64.0233 201.24 63.9231C201.529 63.8229 201.762 63.6836 201.939 63.5052C202.117 63.3236 202.206 63.1108 202.206 62.8666C202.206 62.6193 202.113 62.4158 201.929 62.2562C201.744 62.0965 201.506 61.9713 201.214 61.8805C200.925 61.7866 200.622 61.7146 200.305 61.6645C199.807 61.5862 199.36 61.4798 198.963 61.3452C198.569 61.2106 198.258 61.0212 198.028 60.777C197.798 60.5297 197.683 60.2042 197.683 59.8003C197.683 59.4215 197.805 59.0928 198.049 58.8142C198.293 58.5356 198.613 58.3196 199.01 58.1662C199.41 58.0128 199.842 57.9362 200.305 57.9362C200.684 57.9362 201.055 57.9894 201.417 58.0958C201.779 58.2022 202.098 58.3572 202.373 58.5607C202.651 58.7642 202.851 59.013 202.973 59.3073L202.279 59.5327C202.202 59.3355 202.061 59.168 201.856 59.0302C201.654 58.8894 201.417 58.7829 201.146 58.7109C200.874 58.6358 200.594 58.5982 200.305 58.5982C199.974 58.5951 199.664 58.6452 199.375 58.7485C199.09 58.8487 198.858 58.9895 198.681 59.1711C198.503 59.3495 198.415 59.5593 198.415 59.8003C198.415 60.0821 198.496 60.2996 198.66 60.453C198.827 60.6033 199.053 60.716 199.339 60.7911C199.624 60.8662 199.946 60.9335 200.305 60.993C200.771 61.065 201.205 61.1777 201.605 61.3311C202.006 61.4814 202.328 61.6833 202.571 61.9368C202.815 62.1873 202.937 62.4972 202.937 62.8666C202.937 63.2422 202.815 63.5709 202.571 63.8527C202.328 64.1313 202.006 64.3473 201.605 64.5007C201.208 64.6541 200.775 64.7308 200.305 64.7308ZM204.354 64.6087V58.0348H205.085V64.6087H204.354ZM209.876 64.7308C209.381 64.7308 208.917 64.6431 208.481 64.4678C208.046 64.2894 207.663 64.0452 207.333 63.7353C207.005 63.4222 206.748 63.0591 206.56 62.6459C206.375 62.2327 206.283 61.7913 206.283 61.3217C206.283 60.8522 206.375 60.4108 206.56 59.9975C206.748 59.5843 207.005 59.2228 207.333 58.9128C207.663 58.5998 208.046 58.3556 208.481 58.1803C208.917 58.0019 209.381 57.9127 209.876 57.9127C210.467 57.9127 211.012 58.0363 211.51 58.2836C212.008 58.5309 212.42 58.8596 212.748 59.2697L212.1 59.5843C211.843 59.2744 211.515 59.0287 211.118 58.8471C210.725 58.6624 210.311 58.5701 209.876 58.5701C209.475 58.5701 209.101 58.6436 208.753 58.7908C208.408 58.9348 208.105 59.1335 207.844 59.3871C207.583 59.6407 207.38 59.9334 207.233 60.2652C207.087 60.597 207.014 60.9492 207.014 61.3217C207.014 61.7005 207.087 62.0558 207.233 62.3876C207.383 62.7195 207.588 63.0122 207.85 63.2657C208.114 63.5193 208.419 63.7181 208.763 63.8621C209.111 64.0029 209.482 64.0734 209.876 64.0734C210.328 64.0734 210.748 63.981 211.134 63.7963C211.524 63.6085 211.846 63.3643 212.1 63.0638L212.748 63.3784C212.42 63.7885 212.008 64.1172 211.51 64.3645C211.012 64.6087 210.467 64.7308 209.876 64.7308ZM217.199 64.7308C216.705 64.7308 216.24 64.6431 215.805 64.4678C215.37 64.2894 214.987 64.0436 214.656 63.7306C214.325 63.4175 214.066 63.056 213.878 62.6459C213.69 62.2327 213.596 61.7913 213.596 61.3217C213.596 60.8522 213.69 60.4123 213.878 60.0022C214.066 59.589 214.325 59.2259 214.656 58.9128C214.987 58.5998 215.37 58.3556 215.805 58.1803C216.24 58.0019 216.705 57.9127 217.199 57.9127C217.697 57.9127 218.164 58.0019 218.599 58.1803C219.034 58.3556 219.417 58.5998 219.747 58.9128C220.078 59.2259 220.336 59.589 220.52 60.0022C220.708 60.4123 220.802 60.8522 220.802 61.3217C220.802 61.7913 220.708 62.2327 220.52 62.6459C220.336 63.056 220.078 63.4175 219.747 63.7306C219.417 64.0436 219.034 64.2894 218.599 64.4678C218.164 64.6431 217.697 64.7308 217.199 64.7308ZM217.199 64.0734C217.6 64.0734 217.972 64.0014 218.317 63.8574C218.665 63.7102 218.969 63.5099 219.231 63.2563C219.495 63.0028 219.7 62.7101 219.847 62.3782C219.996 62.0464 220.071 61.6942 220.071 61.3217C220.071 60.9461 219.996 60.5923 219.847 60.2605C219.697 59.9255 219.49 59.6329 219.225 59.3824C218.964 59.1289 218.66 58.9301 218.311 58.7861C217.967 58.6421 217.596 58.5701 217.199 58.5701C216.799 58.5701 216.425 58.6436 216.076 58.7908C215.732 58.9348 215.427 59.1335 215.163 59.3871C214.901 59.6407 214.696 59.9334 214.546 60.2652C214.4 60.597 214.327 60.9492 214.327 61.3217C214.327 61.7005 214.402 62.0558 214.552 62.3876C214.701 62.7195 214.907 63.0122 215.168 63.2657C215.432 63.5193 215.737 63.7181 216.082 63.8621C216.43 64.0029 216.802 64.0734 217.199 64.0734ZM221.862 64.6087V58.0348H222.593V63.9513H225.951V64.6087H221.862ZM229.927 64.7308C229.433 64.7308 228.968 64.6431 228.533 64.4678C228.098 64.2894 227.715 64.0436 227.384 63.7306C227.054 63.4175 226.794 63.056 226.606 62.6459C226.418 62.2327 226.324 61.7913 226.324 61.3217C226.324 60.8522 226.418 60.4123 226.606 60.0022C226.794 59.589 227.054 59.2259 227.384 58.9128C227.715 58.5998 228.098 58.3556 228.533 58.1803C228.968 58.0019 229.433 57.9127 229.927 57.9127C230.425 57.9127 230.892 58.0019 231.327 58.1803C231.762 58.3556 232.145 58.5998 232.476 58.9128C232.807 59.2259 233.064 59.589 233.249 60.0022C233.437 60.4123 233.531 60.8522 233.531 61.3217C233.531 61.7913 233.437 62.2327 233.249 62.6459C233.064 63.056 232.807 63.4175 232.476 63.7306C232.145 64.0436 231.762 64.2894 231.327 64.4678C230.892 64.6431 230.425 64.7308 229.927 64.7308ZM229.927 64.0734C230.328 64.0734 230.7 64.0014 231.045 63.8574C231.393 63.7102 231.698 63.5099 231.959 63.2563C232.223 63.0028 232.429 62.7101 232.575 62.3782C232.725 62.0464 232.8 61.6942 232.8 61.3217C232.8 60.9461 232.725 60.5923 232.575 60.2605C232.425 59.9255 232.218 59.6329 231.954 59.3824C231.692 59.1289 231.388 58.9301 231.04 58.7861C230.695 58.6421 230.324 58.5701 229.927 58.5701C229.527 58.5701 229.153 58.6436 228.805 58.7908C228.46 58.9348 228.155 59.1335 227.891 59.3871C227.63 59.6407 227.424 59.9334 227.275 60.2652C227.128 60.597 227.055 60.9492 227.055 61.3217C227.055 61.7005 227.13 62.0558 227.28 62.3876C227.43 62.7195 227.635 63.0122 227.896 63.2657C228.161 63.5193 228.465 63.7181 228.81 63.8621C229.158 64.0029 229.531 64.0734 229.927 64.0734ZM229.75 57.5182L230.168 56.1659H230.899L230.241 57.5182H229.75ZM237.918 64.7308C237.417 64.7308 236.947 64.6431 236.508 64.4678C236.073 64.2894 235.692 64.0436 235.365 63.7306C235.037 63.4144 234.782 63.0513 234.597 62.6412C234.413 62.228 234.32 61.7866 234.32 61.317C234.32 60.8381 234.416 60.392 234.607 59.9788C234.799 59.5655 235.062 59.2055 235.396 58.8988C235.73 58.5888 236.113 58.3478 236.545 58.1756C236.98 58.0035 237.441 57.9174 237.929 57.9174C238.489 57.9174 239.018 58.0348 239.516 58.2695C240.017 58.5043 240.442 58.8377 240.79 59.2697L240.138 59.589C239.859 59.2603 239.523 59.0083 239.13 58.833C238.74 58.6577 238.338 58.5701 237.923 58.5701C237.53 58.5701 237.159 58.6421 236.811 58.7861C236.467 58.9269 236.162 59.1242 235.897 59.3777C235.633 59.6313 235.426 59.924 235.276 60.2558C235.126 60.5876 235.051 60.9445 235.051 61.3264C235.051 61.7052 235.126 62.0605 235.276 62.3923C235.426 62.7242 235.631 63.0168 235.892 63.2704C236.157 63.5208 236.463 63.7181 236.811 63.8621C237.159 64.0029 237.532 64.0734 237.929 64.0734C238.256 64.0734 238.566 64.0233 238.858 63.9231C239.154 63.8198 239.424 63.6758 239.668 63.4911C239.911 63.3064 240.117 63.0904 240.284 62.8431C240.454 62.5958 240.578 62.3266 240.655 62.0355H238.681V61.4391H241.506C241.495 61.893 241.394 62.3188 241.203 62.7163C241.011 63.1139 240.75 63.4645 240.42 63.7682C240.092 64.0687 239.715 64.305 239.286 64.4772C238.862 64.6462 238.406 64.7308 237.918 64.7308ZM242.723 64.6087V58.0348H243.454V64.6087H242.723ZM248.245 64.7308C247.751 64.7308 247.286 64.6431 246.851 64.4678C246.416 64.2894 246.033 64.0452 245.702 63.7353C245.375 63.4222 245.117 63.0591 244.929 62.6459C244.745 62.2327 244.652 61.7913 244.652 61.3217C244.652 60.8522 244.745 60.4108 244.929 59.9975C245.117 59.5843 245.375 59.2228 245.702 58.9128C246.033 58.5998 246.416 58.3556 246.851 58.1803C247.286 58.0019 247.751 57.9127 248.245 57.9127C248.837 57.9127 249.382 58.0363 249.879 58.2836C250.377 58.5309 250.79 58.8596 251.117 59.2697L250.47 59.5843C250.212 59.2744 249.885 59.0287 249.488 58.8471C249.094 58.6624 248.68 58.5701 248.245 58.5701C247.845 58.5701 247.47 58.6436 247.122 58.7908C246.778 58.9348 246.475 59.1335 246.214 59.3871C245.953 59.6407 245.749 59.9334 245.603 60.2652C245.456 60.597 245.383 60.9492 245.383 61.3217C245.383 61.7005 245.456 62.0558 245.603 62.3876C245.752 62.7195 245.958 63.0122 246.219 63.2657C246.483 63.5193 246.788 63.7181 247.133 63.8621C247.481 64.0029 247.852 64.0734 248.245 64.0734C248.698 64.0734 249.117 63.981 249.503 63.7963C249.893 63.6085 250.215 63.3643 250.47 63.0638L251.117 63.3784C250.79 63.7885 250.377 64.1172 249.879 64.3645C249.382 64.6087 248.837 64.7308 248.245 64.7308ZM254.572 58.0348H255.481L258.144 64.6087H257.366L256.797 63.2H253.262L252.692 64.6087H251.914L254.572 58.0348ZM253.528 62.5426H256.525L255.027 58.8424L253.528 62.5426Z" fill="white"/>
<path d="M97.8967 52.3478H262.679" stroke="white"/>
<path d="M28.0348 31.1364C26.1174 30.003 18.0645 23.3913 18.0645 23.3913V21.3133L26.6926 15.0795H29.1852C29.1852 15.0795 32.0991 17.9759 34.362 17.7241C36.5817 17.4772 39.1732 16.3 38.772 14.1349C38.4859 12.592 35.7042 11.4903 35.7042 11.4903V8.84559L45.4827 1.47827L55.0695 8.84559V11.4903C55.0695 11.4903 51.8452 12.4435 51.4265 14.1349C50.8114 16.6198 54.4136 18.0618 56.9868 17.7241C58.7986 17.4864 60.8218 15.0795 60.8218 15.0795H63.6974L72.5173 21.3133V23.7691C72.5173 23.7691 63.5059 29.2474 61.9718 31.1364C60.4383 33.0255 65.2315 35.8591 67.3406 35.1035C69.4497 34.3478 77.3111 27.3583 77.3111 27.3583H81.3372L89.7736 34.3478V35.8591L47.0166 67.2174H43.9488L1 35.8591V33.5922L7.90247 28.1139L11.929 27.3583C11.929 27.3583 21.5157 34.3478 23.2413 35.1035C24.967 35.8591 29.9521 32.2699 28.0348 31.1364Z" fill="#D9D9D9" stroke="#D9D9D9"/>
<path d="M28.0347 31.1364C26.1174 30.0029 18.0645 23.3912 18.0645 23.3912V21.3133L26.6926 15.0794H29.1852C29.1852 15.0794 32.0991 17.9758 34.362 17.7241C36.5817 17.4772 39.1732 16.2999 38.7719 14.1349C38.4859 12.592 35.7042 11.4902 35.7042 11.4902V8.65659L45.291 1.66711V8.84551V11.4902V15.0794V22.6356V29.6251V39.0704V42.4707V47.3823V50.7825V53.2384V55.1276V58.3389V60.2276V63.2505V67.2173H43.9488L1 35.859V33.5921L7.90247 28.1139L11.929 27.3582C11.929 27.3582 21.5157 34.3478 23.2413 35.1034C24.967 35.859 29.9521 32.2698 28.0347 31.1364Z" fill="white" stroke="white"/>
</svg>
