<svg width="31" height="38" viewBox="0 0 31 38" fill="none" xmlns="http://www.w3.org/2000/svg">
<path d="M16.9634 0.879477L30.0863 13.3043C31.2579 14.4137 30.4378 16.3366 28.7584 16.3366H21.2596V26.3948C21.2596 27.3784 20.4238 28.1698 19.3849 28.1698H11.8862C10.8473 28.1698 10.0115 27.3784 10.0115 26.3948L10.0115 16.3366H2.51272C0.84112 16.3366 0.0131329 14.4211 1.18481 13.3043L14.3076 0.879477C15.0419 0.191673 16.2292 0.191673 16.9634 0.879477ZM29.6957 23.4365H26.5712C26.0557 23.4365 25.6339 23.8359 25.6339 24.324V30.5364C25.6339 31.8455 24.5169 32.9031 23.1343 32.9031H8.13678C6.7542 32.9031 5.6372 31.8455 5.6372 30.5364L5.6372 24.324C5.6372 23.8359 5.21539 23.4365 4.69985 23.4365H1.57537C1.05983 23.4365 0.638029 23.8359 0.638029 24.324L0.638029 30.5364C0.638029 34.4562 3.99685 37.6364 8.13678 37.6364H23.1343C27.2742 37.6364 30.633 34.4562 30.633 30.5364V24.324C30.633 23.8359 30.2112 23.4365 29.6957 23.4365Z" fill="#FFFEFA"/>
</svg>
