<svg width="30" height="29" viewBox="0 0 30 29" fill="none" xmlns="http://www.w3.org/2000/svg">
<path d="M0 28.8617L2.08985 21.4524C0.804875 19.2846 0.120025 16.8217 0.127085 14.3039C0.127085 6.41446 6.73553 0 14.8549 0C18.7945 0 22.4941 1.4887 25.2688 4.1917C28.0506 6.89469 29.5827 10.4895 29.5756 14.3108C29.5756 22.2002 22.9672 28.6147 14.8478 28.6147H14.8408C12.3767 28.6147 9.95503 28.011 7.80164 26.8721L0 28.8617ZM8.16877 24.2789L8.61357 24.5396C10.4916 25.6236 12.645 26.193 14.8408 26.1998H14.8478C21.5904 26.1998 27.0833 20.8693 27.0833 14.3108C27.0833 11.1344 25.8125 8.15014 23.5038 5.89993C21.195 3.64973 18.1167 2.41486 14.8478 2.41486C8.09817 2.41486 2.60525 7.74538 2.60525 14.3039C2.60525 16.5473 3.24774 18.7357 4.47623 20.6292L4.76571 21.082L3.53015 25.4658L8.16877 24.2789Z" fill="black" fill-opacity="0.24"/>
<path d="M0.668098 28.0967L2.66228 21.0301C1.43509 18.9637 0.786634 16.6126 0.786634 14.2142C0.786634 6.69371 7.08992 0.575684 14.8226 0.575684C18.5809 0.575684 22.1021 1.99848 24.7517 4.57307C27.4013 7.14765 28.8586 10.5759 28.8586 14.221C28.8586 21.7415 22.5553 27.8595 14.8226 27.8595H14.8156C12.4658 27.8595 10.1579 27.2836 8.10793 26.1996L0.668098 28.0967Z" fill="url(#paint0_linear_863_132)"/>
<path d="M0.159107 28.5913L2.22301 21.274C0.95399 19.1331 0.277642 16.7007 0.284615 14.2142C0.284615 6.42273 6.81103 0.0878906 14.8296 0.0878906C18.7203 0.0878906 22.374 1.55811 25.1143 4.22755C27.8615 6.89699 29.3746 10.4472 29.3676 14.221C29.3676 22.0125 22.8412 28.3474 14.8226 28.3474H14.8156C12.3822 28.3474 9.99056 27.7511 7.8639 26.6265L0.159107 28.5913ZM8.22648 24.0654L8.66575 24.3229C10.5205 25.3934 12.6471 25.9557 14.8156 25.9625H14.8226C21.4815 25.9625 26.9062 20.6981 26.9062 14.221C26.9062 11.0841 25.6512 8.13686 23.3711 5.91459C21.091 3.69231 18.051 2.47277 14.8226 2.47277C8.15675 2.47277 2.73202 7.73712 2.73202 14.2142C2.73202 16.4297 3.36653 18.591 4.57977 20.461L4.86565 20.9082L3.64544 25.2375L8.22648 24.0654Z" fill="white"/>
<path d="M11.1898 8.29965C10.9178 7.71021 10.632 7.69666 10.374 7.68988C10.1648 7.68311 9.92074 7.68311 9.6767 7.68311C9.43265 7.68311 9.04218 7.77118 8.7075 8.1235C8.37281 8.47581 7.43847 9.32949 7.43847 11.0707C7.43847 12.8052 8.74236 14.4854 8.92365 14.7226C9.10494 14.9597 11.4408 18.6386 15.1293 20.0547C18.1973 21.2336 18.8248 20.9964 19.4872 20.9355C20.1566 20.8745 21.6348 20.0818 21.9416 19.2552C22.2414 18.4286 22.2414 17.724 22.1508 17.5749C22.0601 17.4259 21.8161 17.3378 21.4535 17.1616C21.0909 16.9855 19.3059 16.1318 18.9713 16.0099C18.6366 15.8879 18.3925 15.8337 18.1555 16.186C17.9114 16.5383 17.2141 17.331 17.005 17.5682C16.7958 17.8053 16.5796 17.8324 16.2171 17.6562C15.8545 17.4801 14.6831 17.1074 13.2955 15.9015C12.2147 14.9665 11.4826 13.8079 11.2734 13.4556C11.0643 13.1033 11.2525 12.9136 11.4338 12.7374C11.5942 12.5816 11.7964 12.3241 11.9777 12.1209C12.159 11.9176 12.2217 11.7686 12.3403 11.5314C12.4588 11.2943 12.403 11.091 12.3124 10.9149C12.2217 10.7387 11.5105 8.9975 11.1898 8.29965Z" fill="white"/>
<defs>
<linearGradient id="paint0_linear_863_132" x1="3608.94" y1="7072.97" x2="3608.94" y2="0.18025" gradientUnits="userSpaceOnUse">
<stop stop-color="#20B038"/>
<stop offset="1" stop-color="#60D66A"/>
</linearGradient>
</defs>
</svg>
