<svg width="97" height="85" viewBox="0 0 97 85" fill="none" xmlns="http://www.w3.org/2000/svg">
<rect width="97" height="85" rx="15" fill="#09548D"/>
<path d="M32.5234 39.6582C30.7132 38.5247 23.1105 31.913 23.1105 31.913V29.8351L31.2563 23.6012H33.6095C33.6095 23.6012 36.3605 26.4976 38.497 26.2459C40.5926 25.999 43.0392 24.8217 42.6604 22.6567C42.3903 21.1138 39.7641 20.012 39.7641 20.012V17.3673L48.9959 10L58.0468 17.3673V20.012C58.0468 20.012 55.0028 20.9652 54.6075 22.6567C54.0268 25.1415 57.4276 26.5835 59.857 26.2459C61.5675 26.0081 63.4776 23.6012 63.4776 23.6012H66.1924L74.5193 29.8351V32.2908C74.5193 32.2908 66.0116 37.7691 64.5633 39.6582C63.1155 41.5472 67.6407 44.3808 69.6319 43.6252C71.6231 42.8696 79.0451 35.88 79.0451 35.88H82.8461L90.8109 42.8696V44.3808L50.4441 75.7391H47.5478L7 44.3808V42.1139L13.5166 36.6357L17.318 35.88C17.318 35.88 26.3688 42.8696 27.998 43.6252C29.6271 44.3808 34.3336 40.7916 32.5234 39.6582Z" fill="#D9D9D9" stroke="#D9D9D9"/>
<path d="M32.5234 39.6582C30.7132 38.5248 23.1105 31.9131 23.1105 31.9131V29.8351L31.2563 23.6013H33.6095C33.6095 23.6013 36.3606 26.4976 38.497 26.2459C40.5926 25.999 43.0392 24.8217 42.6603 22.6567C42.3903 21.1138 39.7641 20.012 39.7641 20.012V17.1784L48.815 10.189V17.3674V20.012V23.6013V31.1575V38.147V47.5922V50.9926V55.9041V59.3044V61.7602V63.6494V66.8607V68.7494V71.7724V75.7392H47.5478L7 44.3808V42.114L13.5166 36.6357L17.318 35.8801C17.318 35.8801 26.3688 42.8696 27.998 43.6252C29.6271 44.3808 34.3336 40.7916 32.5234 39.6582Z" fill="white" stroke="white"/>
</svg>
